<svg xmlns="http://www.w3.org/2000/svg" xmlns:xlink="http://www.w3.org/1999/xlink" viewBox="0 0 173.2 219.46"><defs><style>.cls-1,.cls-21{fill:none;}.cls-2{isolation:isolate;}.cls-3{clip-path:url(#clip-path);}.cls-4{fill:#634132;}.cls-5{fill:#42271a;opacity:0.51;}.cls-6{fill:#ceb33f;}.cls-7{fill:#666868;opacity:0.31;}.cls-15,.cls-7{mix-blend-mode:multiply;}.cls-8{fill:#2b2b2b;opacity:0.68;}.cls-9{fill:#7e7f7f;}.cls-10{fill:#1e1e1e;}.cls-11,.cls-18{fill:#181818;}.cls-12{fill:#fff;}.cls-13{fill:#353535;}.cls-14{fill:#b79f39;}.cls-15,.cls-17{fill:#b69f37;}.cls-15{opacity:0.34;}.cls-16{fill:#cfcfce;}.cls-18{opacity:0.12;}.cls-19{fill:#b3b3b3;}.cls-20{fill:#c6c6c5;}.cls-21{stroke:#353535;stroke-miterlimit:10;stroke-width:0.25px;}</style><clipPath id="clip-path"><rect class="cls-1" x="1.56" y="2.85" width="161.87" height="216.39"/></clipPath></defs><title>INFJ - Advisor</title><g class="cls-2"><g id="Layer_1" data-name="Layer 1"><g class="cls-3"><path class="cls-4" d="M66,84.18l43.78,10.6s.17,9.94.87,13.46c1.66,8.31,13.58,13.93,13.58,13.93S118.84,132,116,134.38c-3.6,3-12.57,7.79-17.31,7.49-13.66-.85-49-23.38-49-23.38s15-6.69,16.4-19.74c.44-4.17-2.18-17-2.18-17"/><path class="cls-5" d="M111.24,110.35c-1.23-2.72-1.31-15-1.31-15L83.86,91.24c.48,1,.91,2,1.31,3,3.84-1.09-18.46-6.52-16.23-1.83,12.61,26.44,54.83,29.75,54.83,29.75S114.3,117.12,111.24,110.35Z"/><path class="cls-4" d="M101.76,105.22C79.52,105.22,58,88.9,52,70c-2.47-7.87-5.45-20.13-2.65-31.8,3.13-13,14.58-15.52,28.5-17.61l.44-4.13c22.19-3.32,38.39,2.8,40.55,22.39a104,104,0,0,0,1.8,11.41c.73,3.27,2.68,14.71,2.78,16.3C124.39,81.76,107.28,105.22,101.76,105.22Z"/><path class="cls-5" d="M100.87,47.12c-.84,2.64-.82,6.05-.58,11a52.61,52.61,0,0,0,.54,6.21c1,5.26,2.43,3.94,7.28,7.49,1.72,1.26,1.06,4.46.21,5.65-1.51,2.11-3.78,8.16-4.4,12-.77,4.66.55,14.61.55,14.61S117.81,94,123.16,70.79c0,0,.31-10.47-2-18.54L119.28,41.4S103.32,39.43,100.87,47.12Z"/><path class="cls-6" d="M154.48,140.32c-10-12-34.1-21.46-34.1-21.46h0l-3.86-2.31-2.79-.4-4.85,12.17-17.61,6.59L63.52,106.82l-10.52,8L19.88,133.59c-16,8.17-16,27.87-16,40.59,0,15.42,3.64,46.87,3.64,46.87l102.87.34,50.44-.34s.77-28.3.77-36.77C161.63,165.75,160.36,147.39,154.48,140.32Z"/><path class="cls-7" d="M141.5,225.23a223.82,223.82,0,0,0-.81-34.63c-.94-8.62-4.74-22.89-4.74-22.89s1,20.63.27,29.47c-1.58,20.22-6.88,28-6.88,28Z"/><path class="cls-7" d="M37.44,225.23s-1-22.22-1.75-34.63c-.59-9.84-1.2-28.34-1.2-28.34s5.38,25.57,6.76,34.92c3,20.08,9.34,28,9.34,28Z"/><path class="cls-8" d="M50.19,34A37,37,0,0,0,48.42,43a63.1,63.1,0,0,0,2.19,22.11,8.58,8.58,0,0,0,6.45,1.92s-3.41-6.07.2-10.94c2.71-3.65,5.89-1.88,6.06-2.67.23-1.06.8-4,.86-4,.49-1.63,1.17-4,2.07-6.63C60.92,39.85,55.61,36.76,50.19,34Z"/><path class="cls-9" d="M64.37,48.89l-.19.62Z"/><path class="cls-9" d="M65.93,43.85Z"/><path class="cls-10" d="M108.47,16.86c-8.54-3.39-16.55-7.25-32.06-3.78-20.49,4.58-26.33,16.8-27.75,27.71A36.3,36.3,0,0,1,50.19,34c5.42,2.81,10.73,5.9,16.06,8.93,2.07-6,5.31-13.21,10.08-15.24s12.55,2.57,21.76,3.69c7.26.88,8.6-8.3,16.06-5.56C116.32,26.57,113.91,19,108.47,16.86Z"/><path class="cls-9" d="M48.65,40.81c-.09.75-.17,1.5-.23,2.23C48.48,42.31,48.56,41.56,48.65,40.81Z"/><rect class="cls-11" x="80.1" y="164.21" width="49.72" height="63.27" transform="translate(-40.42 27.8) rotate(-12.68)"/><polygon class="cls-12" points="133.88 220.53 85.37 231.44 71.49 169.71 118.05 159.24 120.59 161.43 133.88 220.53"/><rect class="cls-13" x="75.49" y="162.18" width="49.72" height="63.27" transform="translate(-40.08 26.74) rotate(-12.68)"/><rect class="cls-13" x="75.49" y="162.18" width="49.72" height="63.27" transform="translate(-40.08 26.74) rotate(-12.68)"/><rect class="cls-11" x="76.06" y="167.37" width="2.44" height="63.27" transform="translate(-41.78 21.81) rotate(-12.68)"/><rect class="cls-12" x="85.62" y="179.73" width="24.7" height="4.4" rx="0.85" transform="matrix(0.98, -0.22, 0.22, 0.98, -37.53, 25.93)"/><rect class="cls-12" x="88" y="186.48" width="24.7" height="9.22" rx="1.26" transform="translate(-39.49 26.68) rotate(-12.68)"/><path class="cls-4" d="M120.71,228.38,104,232.13l-6.7-27.76,16.7-5.75c8.79-2.22,11.19,10.45,11.62,12.26.53,2.17.52,8.88.52,8.88A7.2,7.2,0,0,1,120.71,228.38Z"/><polygon class="cls-14" points="104.56 229.8 14.49 250.05 7.31 218.11 98.02 200.74 104.56 229.8"/><polygon class="cls-15" points="104.56 229.8 98.76 231.1 92.2 201.92 98.02 200.74 104.56 229.8"/><path class="cls-16" d="M114.25,135.53c-10.49,2.17-16,2.17-26.54,0,.49-2.39.74-3.58,1.23-6,9.53,2,14.54,2,24.08,0C113.51,132,113.76,133.14,114.25,135.53Z"/><path class="cls-17" d="M122.56,119.76c-1.19,28.3-42.6,32.44-63.34-3.35-.12-.21,7.06,4.55,7.13,4.28s22.38,15.38,22.49,15c8.82,1.37,24.64,2.09,27.83-14.87a23.93,23.93,0,0,0,.74-3.85l.46.27C119.43,118.12,121,118.91,122.56,119.76Z"/><polygon class="cls-12" points="63.52 106.82 55.61 112.87 87.25 143.94 101.41 131.03 63.52 106.82"/><polygon class="cls-12" points="112.55 111.99 101.41 131.03 113.71 141.03 117.41 116.94 112.55 111.99"/></g><path class="cls-18" d="M79.41,166l2.67-.53-1.83-7.92-3.49-4.17-.77-.58"/><path class="cls-11" d="M78.39,156.8,76,152.88a.18.18,0,0,0-.33.06l-.27,4.62"/><path class="cls-19" d="M81,165.74l-1.69-7.88L75.1,159l1.6,7.7C78.34,166.34,79.32,166.09,81,165.74Z"/><path class="cls-11" d="M81.35,165.69l-1-4.82L75.44,162l.85,4.8C77.92,166.49,79.5,166.07,81.35,165.69Z"/><path class="cls-20" d="M75.43,154.27,75.1,159l4.21-1.14-2.38-4A.83.83,0,0,0,75.43,154.27Z"/><path class="cls-10" d="M123.45,68.21c0-.5-.15-2.83-.47-4.76-1.17,3.42-5,9.83-7.6,14.66a109.38,109.38,0,0,0-31.77,3.3c-26.44-4.09-28-17-28-20.46a3.94,3.94,0,0,1,.14-.94,49.47,49.47,0,0,0-6.36.07A84.36,84.36,0,0,0,52.26,71c5.86,18.12,27.6,34.35,49.5,34.25C107.83,105.2,124.41,82.79,123.45,68.21Zm-11,17.32c-.43,1.82-5.81,4.86-9,5.17a18,18,0,0,1-11.68-2.27c-3.64-2-2.29-3.37-1-4.09C94.24,82.32,113.87,79.37,112.42,85.53Z"/><line class="cls-21" x1="75.67" y1="163.33" x2="80.66" y2="162.28"/><line class="cls-21" x1="75.9" y1="164.69" x2="80.89" y2="163.65"/><line class="cls-21" x1="76.16" y1="166.11" x2="81.21" y2="165.05"/></g></g></svg>